<?xml version="1.0" encoding="UTF-8" standalone="no"?>
<svg
   width="210mm"
   height="190mm"
   version="1.1"
   viewBox="0 0 210 190"
   id="svg36"
   sodipodi:docname="candidates.svg"
   inkscape:version="1.2.1 (9c6d41e410, 2022-07-14)"
   xmlns:inkscape="http://www.inkscape.org/namespaces/inkscape"
   xmlns:sodipodi="http://sodipodi.sourceforge.net/DTD/sodipodi-0.dtd"
   xmlns="http://www.w3.org/2000/svg"
   xmlns:svg="http://www.w3.org/2000/svg"
   xmlns:rdf="http://www.w3.org/1999/02/22-rdf-syntax-ns#"
   xmlns:cc="http://creativecommons.org/ns#"
   xmlns:dc="http://purl.org/dc/elements/1.1/">
  <defs
     id="defs40" />
  <sodipodi:namedview
     id="namedview38"
     pagecolor="#505050"
     bordercolor="#eeeeee"
     borderopacity="1"
     inkscape:showpageshadow="0"
     inkscape:pageopacity="0"
     inkscape:pagecheckerboard="0"
     inkscape:deskcolor="#505050"
     inkscape:document-units="mm"
     showgrid="false"
     inkscape:zoom="3.5369605"
     inkscape:cx="557.54086"
     inkscape:cy="532.23664"
     inkscape:window-width="1920"
     inkscape:window-height="1080"
     inkscape:window-x="2970"
     inkscape:window-y="300"
     inkscape:window-maximized="1"
     inkscape:current-layer="svg36" />
  <metadata
     id="metadata2">
    <rdf:RDF>
      <cc:Work
         rdf:about="">
        <dc:format>image/svg+xml</dc:format>
        <dc:type
           rdf:resource="http://purl.org/dc/dcmitype/StillImage" />
      </cc:Work>
    </rdf:RDF>
  </metadata>
  <path
     d="m98.106 96.54-60.788 7.5246 28.604-76.81z"
     fill="none"
     stroke="#000"
     stroke-width=".3779px"
     id="path4" />
  <rect
     x="37.315"
     y="26.85"
     width="60.907"
     height="77.217"
     fill-opacity=".27059"
     opacity=".36662"
     stroke="#999"
     stroke-width=".47963"
     id="rect6" />
  <g
     fill="none"
     id="g16">
    <path
       d="m9.6509 104.07h193.81"
       stroke="#f00"
       stroke-width="1.0433px"
       id="path8" />
    <path
       d="m9.6509 27.421h193.81"
       stroke="#f00"
       stroke-width="1.0433px"
       id="path10" />
    <path
       d="m37.315 4.0914v182.88"
       stroke="#008000"
       stroke-width=".96492px"
       id="path12" />
    <path
       d="m98.223 4.0914v182.88"
       stroke="#008000"
       stroke-width=".96358px"
       id="path14" />
  </g>
  <rect
     x="85.272"
     y="128.09"
     width="89.106"
     height="34.456"
     fill-opacity=".27059"
     opacity=".36662"
     stroke="#999"
     stroke-width=".38752"
     id="rect18" />
  <g
     fill="none"
     id="g28">
    <path
       d="m84.918 4.0914v182.88"
       stroke="#008000"
       stroke-width=".96492px"
       id="path20" />
    <path
       d="m175.05 4.0914v182.88"
       stroke="#008000"
       stroke-width=".96358px"
       id="path22" />
    <path
       d="m9.6509 162.71 193.81 0.64885"
       stroke="#f00"
       stroke-width="1.0433px"
       id="path24" />
    <path
       d="m9.6509 127.63h193.81"
       stroke="#f00"
       stroke-width="1.0433px"
       id="path26" />
  </g>
  <text
     x="41.48061"
     y="132.22871"
     fill="#000000"
     font-family="sans-serif"
     font-size="10.583px"
     stroke-width=".26458"
     style="line-height:1.25"
     xml:space="preserve"
     id="text32"><tspan
       x="41.48061"
       y="132.22871"
       stroke-width=".26458"
       id="tspan30" /></text>
  <path
     d="m 109.91,128.23 c -1.46586,0.005 -4.47522,2.23878 -4.4173,4.3963 0.0579,2.15752 5.19638,2.36937 5.0088,4.4764 -0.18758,2.10703 -1.85211,3.34949 -5.088,3.1317 -3.23589,-0.21779 -7.146056,-8.67909 -10.433,-8.5434 -3.286944,0.13569 -3.235963,2.19392 -4.4955,4.3474 -1.259537,2.15348 -2.223192,6.1458 -2.2094,8.4302 0.01379,2.2844 1.749657,2.99946 1.3237,4.813 -0.425956,1.81354 -2.080375,2.34624 -2.823312,4.28719 -0.742937,1.94095 -1.727856,5.40058 -0.527768,6.84296 1.200084,1.44237 2.902311,0.2257 4.11088,0.66206 1.208569,0.43636 -0.434801,1.3086 2.3855,1.3389 2.820301,0.0303 9.65691,-5.6727 12.518,-6.6766 2.86109,-1.0039 1.86084,-0.89464 3.9371,-0.73654 2.07626,0.1581 4.92903,2.65491 8.0109,2.8062 3.08187,0.15129 4.9202,-1.79908 9.7407,-2.3717 4.8205,-0.57262 14.31772,-0.98145 19.101,0.0452 4.78328,1.02665 7.30198,2.85541 9.3592,4.185 2.05722,1.32958 0.80991,2.49821 3.3207,2.9542 2.51078,0.45598 4.15766,-8.01579 6.61827,-10.04035 3.96327,-3.26092 10.47333,-4.24365 8.95559,-10.96325 -0.46103,-2.04117 -8.53617,-0.10283 -10.8356,-1.7513 -2.29943,-1.64847 -0.51229,-7.88212 -4.43569,-8.41204 -3.9234,-0.52992 -8.48881,10.62198 -13.27241,11.99294 -4.7836,1.37095 -10.24481,1.22429 -12.071,-0.73546 -1.82619,-1.95975 0.84932,-2.37781 0.0385,-3.9788 -0.81083,-1.60099 -4.58552,-2.43221 -5.5112,-3.9639 -0.92568,-1.53169 1.82711,-3.87806 -2.74639,-3.81106 -4.57351,0.067 -6.16719,2.18666 -10.2774,1.50154 -4.11021,-0.68513 -3.81901,-4.23174 -5.28487,-4.22679 z"
     fill="none"
     stroke="#000000"
     stroke-width="0.26458px"
     id="path34"
     sodipodi:nodetypes="ssssssssssssssssssssssssssssss" />
</svg>
